<svg width="26" height="22" viewBox="0 0 26 22" fill="none" xmlns="http://www.w3.org/2000/svg">
<path d="M25.5697 2.49509C24.6269 2.91733 23.6191 3.20248 22.5571 3.33409C23.6408 2.67605 24.4752 1.63414 24.8653 0.394827C23.8521 1.00352 22.7305 1.4477 21.533 1.6835C20.5739 0.647077 19.2085 0 17.7021 0C14.8032 0 12.457 2.37993 12.457 5.31371C12.457 5.73047 12.5004 6.13626 12.5925 6.52561C8.23065 6.30626 4.36186 4.18955 1.77726 0.970615C1.32752 1.75479 1.06744 2.67056 1.06744 3.64118C1.06744 5.4837 1.99399 7.11236 3.4028 8.06653C2.54126 8.04459 1.72849 7.80331 1.02409 7.403C1.02409 7.42493 1.02409 7.44687 1.02409 7.4688C1.02409 10.0461 2.83386 12.1903 5.23424 12.6783C4.79534 12.799 4.32935 12.8648 3.85253 12.8648C3.51658 12.8648 3.18606 12.8319 2.86637 12.7661C3.53284 14.8773 5.47265 16.4127 7.77008 16.4566C5.97656 17.8824 3.71165 18.7323 1.25167 18.7323C0.829025 18.7323 0.411803 18.7049 0 18.6556C2.3191 20.18 5.0771 21.0574 8.03558 21.0574C17.6913 21.0574 22.9689 12.958 22.9689 5.93337C22.9689 5.70305 22.9634 5.47274 22.9526 5.2479C23.9767 4.49664 24.8653 3.55892 25.5697 2.49509Z" fill="currentColor"/>
</svg>
