<svg width="31" height="19" viewBox="0 0 31 19" fill="none" xmlns="http://www.w3.org/2000/svg">
<path d="M29.3964 1.22392C29.6031 0.518896 29.3964 0 28.4024 0H25.1132C24.2755 0 23.8902 0.44558 23.6836 0.941953C23.6836 0.941953 22.0083 5.06499 19.6405 7.73853C18.8755 8.51126 18.5237 8.75948 18.1049 8.75948C17.8983 8.75948 17.5799 8.51126 17.5799 7.80623V1.22392C17.5799 0.377877 17.3453 0 16.6529 0H11.4817C10.9568 0 10.644 0.394853 10.644 0.761435C10.644 1.5623 11.828 1.74843 11.9508 4.0046V8.9005C11.9508 9.97217 11.7609 10.1695 11.3421 10.1695C10.2252 10.1695 7.51118 6.02953 5.9029 1.29163C5.57905 0.372263 5.26064 0 4.41743 0H1.12808C0.18991 0 0 0.44558 0 0.941953C0 1.82175 1.1169 6.19314 5.1991 11.9688C7.91872 15.9113 11.7496 18.0492 15.2343 18.0492C17.3284 18.0492 17.5854 17.5754 17.5854 16.7576C17.5854 12.9897 17.3955 12.6344 18.4454 12.6344C18.9312 12.6344 19.7689 12.8825 21.7235 14.7833C23.9571 17.0394 24.3258 18.0491 25.5767 18.0491H28.8659C29.8041 18.0491 30.2788 17.5754 30.0051 16.6389C29.3797 14.6705 25.1522 10.6207 24.9624 10.35C24.4766 9.71828 24.6161 9.43617 24.9624 8.8721C24.9681 8.86661 28.9831 3.15856 29.3964 1.22392Z" fill="currentColor"/>
</svg>
