<svg height="700pt" preserveAspectRatio="xMidYMid meet" viewBox="0 0 700 700" width="700pt" xmlns="http://www.w3.org/2000/svg"><g transform="matrix(.1 0 0 -.1 0 700)"><path d="m3280 6013c-1073-38-1989-355-2722-940l-118-94v-732l1-732 41 50c130 158 393 383 618 527 497 320 1144 561 1750 653 305 47 714 58 1016 30 544-51 1085-207 1599-460 453-223 833-501 1058-775l37-45v727 727l-77 67c-227 194-488 365-783 512-580 291-1209 445-1955 482-197 9-280 10-465 3z"/><path d="m440 2778v-727l83-70c350-298 769-538 1230-705 976-354 2212-388 3243-90 149 42 193 57 345 115 416 156 815 387 1147 663l72 60v731l-1 730-31-40c-58-74-272-280-368-354-603-466-1402-776-2232-867-185-21-600-23-768-5-406 43-724 113-1088 240-673 234-1291 623-1600 1006l-32 40z"/></g></svg>